<svg width="25" height="25" viewBox="0 0 25 25" fill="none" xmlns="http://www.w3.org/2000/svg">
<path d="M21.3379 0H3.66211C1.6428 0 0 1.6428 0 3.66211V21.3379C0 23.3572 1.6428 25 3.66211 25H21.3379C23.3572 25 25 23.3572 25 21.3379V3.66211C25 1.6428 23.3572 0 21.3379 0ZM23.5352 21.3379C23.5352 22.5494 22.5494 23.5352 21.3379 23.5352H3.66211C2.45056 23.5352 1.46484 22.5494 1.46484 21.3379V3.66211C1.46484 2.45056 2.45056 1.46484 3.66211 1.46484H21.3379C22.5494 1.46484 23.5352 2.45056 23.5352 3.66211V21.3379Z" fill="white"/>
<path d="M4.44336 20.6055H8.83789V10.2539H4.44336V20.6055ZM5.9082 11.7188H7.37305V19.1406H5.9082V11.7188Z" fill="white"/>
<path d="M16.1663 10.2539C16.165 10.2539 16.1634 10.2539 16.1621 10.2539C15.6557 10.2539 15.1625 10.3386 14.6973 10.503V10.2539H10.3027V20.6055H14.6973V15.3809C14.6973 14.9771 15.0259 14.6484 15.4297 14.6484C15.8335 14.6484 16.1621 14.9771 16.1621 15.3809V20.6055H20.5566V14.8773C20.5566 12.5069 18.6337 10.2562 16.1663 10.2539ZM19.0918 19.1406H17.627V15.3809C17.627 14.1693 16.6412 13.1836 15.4297 13.1836C14.2181 13.1836 13.2326 14.1693 13.2324 15.3807V19.1406H11.7676V11.7188H13.2324V13.1845L14.4047 12.3041C14.9145 11.9211 15.5222 11.7188 16.1621 11.7188H16.165C17.724 11.7203 19.0918 13.1962 19.0918 14.8773V19.1406Z" fill="white"/>
<path d="M4.44336 8.78906H8.83789V4.39453H4.44336V8.78906ZM5.9082 5.85938H7.37305V7.32422H5.9082V5.85938Z" fill="white"/>
</svg>
