<svg width="47" height="47" viewBox="0 0 47 47" fill="none" xmlns="http://www.w3.org/2000/svg">
<g clip-path="url(#clip0)">
<path d="M27.8225 27.4292H19.1826C18.4596 27.4292 17.8735 28.0153 17.8735 28.7383V45.691C17.8735 46.414 18.4596 47 19.1826 47H27.8225C28.5455 47 29.1316 46.414 29.1316 45.691V28.7383C29.1316 28.0153 28.5455 27.4292 27.8225 27.4292ZM26.5134 44.3819H20.4917V30.0474H26.5134V44.3819Z" fill="black"/>
<path d="M44.9717 17.1528H36.2662C35.5432 17.1528 34.9571 17.7388 34.9571 18.4619V45.6909C34.9571 46.4139 35.5432 47 36.2662 47H44.9717C45.6947 47 46.2807 46.4139 46.2807 45.6909V18.4619C46.2807 17.739 45.6947 17.1528 44.9717 17.1528ZM43.6626 44.3818H37.5753V19.771H43.6626V44.3818Z" fill="black"/>
<path d="M10.7389 33.7782H2.03346C1.31044 33.7782 0.724365 34.3643 0.724365 35.0873V45.6909C0.724365 46.414 1.31044 47 2.03346 47H10.7389C11.4619 47 12.048 46.414 12.048 45.6909V35.0873C12.048 34.3644 11.4619 33.7782 10.7389 33.7782ZM9.42984 44.3819H3.34255V36.3964H9.42984V44.3819Z" fill="black"/>
<path d="M46.4117 1.31289C46.2126 1.03852 45.8994 0.869889 45.5607 0.85473L33.648 0.00380137C32.925 -0.0504465 32.2949 0.491782 32.2407 1.21467C32.1864 1.93768 32.7285 2.56774 33.4515 2.62198L41.8828 3.19453L26.3825 15.3203L14.5353 6.0257C14.0294 5.62504 13.3071 5.65285 12.8334 6.09109L0.658988 17.7419C0.14144 18.2329 0.112374 19.048 0.59359 19.5746C0.827119 19.8777 1.1932 20.0486 1.57544 20.0328C1.92072 20.0279 2.25009 19.8867 2.49177 19.64L13.8154 8.77455L25.5317 18.0036C26.0099 18.3865 26.6898 18.3865 27.1681 18.0036L43.9247 4.96429L43.2698 13.0947C43.2665 13.8056 43.8059 14.4016 44.5135 14.4692H44.5789C45.2537 14.4726 45.8204 13.9624 45.888 13.291L46.7389 2.22922C46.7869 1.88857 46.6646 1.54605 46.4117 1.31289Z" fill="black"/>
</g>
<defs>
<clipPath id="clip0">
<rect width="47" height="47" fill="white"/>
</clipPath>
</defs>
</svg>
