<svg width="58" height="58" viewBox="0 0 58 58" fill="none" xmlns="http://www.w3.org/2000/svg">
<g clip-path="url(#clip0)">
<path d="M9.63709 51.5352C9.4265 51.3243 9.13423 51.2032 8.8363 51.2032C8.53837 51.2032 8.24611 51.3243 8.03541 51.5352C7.8247 51.746 7.70349 52.0381 7.70349 52.3361C7.70349 52.634 7.82459 52.9263 8.03541 53.1368C8.24611 53.3475 8.53837 53.4689 8.8363 53.4689C9.13423 53.4689 9.4265 53.3477 9.63709 53.1368C9.84779 52.9263 9.96912 52.634 9.96912 52.3361C9.96912 52.0381 9.84791 51.7459 9.63709 51.5352Z" fill="#0D8D90"/>
<path d="M53.1883 20.7234C52.9776 20.5126 52.6865 20.3915 52.3874 20.3915C52.0895 20.3915 51.7972 20.5126 51.5865 20.7234C51.3759 20.9341 51.2546 21.2264 51.2546 21.5243C51.2546 21.8222 51.3758 22.1145 51.5865 22.3251C51.7972 22.5358 52.0895 22.6571 52.3874 22.6571C52.6865 22.6571 52.9776 22.5359 53.1883 22.3251C53.4 22.1145 53.5212 21.8222 53.5212 21.5243C53.5212 21.2264 53.4 20.9341 53.1883 20.7234Z" fill="#0D8D90"/>
<path d="M57.6667 0.331801C57.4542 0.119398 57.166 0 56.8655 0L28.999 0.00147266C28.3734 0.00147266 27.8663 0.508746 27.8663 1.13429V4.37379L17.1285 7.25102C16.5241 7.41301 16.1655 8.03413 16.3275 8.63837L21.8926 29.4076L17.0783 34.2219C16.4655 33.3272 15.4367 32.7388 14.273 32.7388H3.39832C1.52443 32.7388 0 34.2634 0 36.1372V54.6016C0 56.4755 1.52443 58 3.39832 58H14.2731C15.865 58 17.2043 56.8994 17.5713 55.4195L18.9182 56.5941C19.958 57.5008 21.2902 58.0001 22.6698 58.0001H56.8657C57.4913 58.0001 57.9985 57.4928 57.9985 56.8673V1.13281C57.9983 0.832391 57.8791 0.544203 57.6667 0.331801ZM15.4057 54.6017C15.4057 55.2262 14.8975 55.7345 14.2729 55.7345H3.39821C2.77358 55.7345 2.2654 55.2263 2.2654 54.6017V36.1373C2.2654 35.5127 2.77358 35.0045 3.39821 35.0045H7.70278V48.0539C7.70278 48.6794 8.21006 49.1867 8.8356 49.1867C9.46114 49.1867 9.96841 48.6794 9.96841 48.0539V35.0045H14.273C14.8976 35.0045 15.4058 35.5127 15.4058 36.1373V54.6017H15.4057ZM18.809 9.14621L27.8663 6.71928V10.9169L27.1071 11.1204C26.8167 11.1982 26.5694 11.3879 26.4192 11.6481C26.269 11.9084 26.2282 12.2175 26.3061 12.5077C26.7414 14.1323 25.7739 15.8081 24.1493 16.2434C23.8587 16.3213 23.611 16.5114 23.4609 16.7722C23.3108 17.0329 23.2703 17.3426 23.3489 17.633L27.7644 33.9838H25.4909L24.3192 29.4C24.2819 29.2541 24.2167 29.1196 24.1294 29.0027L18.809 9.14621ZM27.8663 16.1119V25.6707L25.8001 18.0202C26.6632 17.5746 27.3695 16.9078 27.8663 16.1119ZM44.1407 55.7344H22.6696C21.8376 55.7344 21.0341 55.4333 20.4069 54.8865L17.6713 52.5006V36.8331L22.6169 31.8874L23.5139 35.3969C23.6421 35.8984 24.0938 36.2491 24.6114 36.2491L46.8829 36.2505C47.7575 36.2505 48.4689 36.9619 48.4689 37.8364C48.4689 38.7109 47.7575 39.4223 46.8829 39.4223H35.471C34.8454 39.4223 34.3382 39.9296 34.3382 40.5551C34.3382 41.1807 34.8454 41.688 35.471 41.688H50.4286C51.3032 41.688 52.0146 42.3994 52.0146 43.2739C52.0146 44.1484 51.3032 44.8598 50.4286 44.8598H35.471C34.8454 44.8598 34.3382 45.3671 34.3382 45.9926C34.3382 46.6182 34.8454 47.1255 35.471 47.1255H48.0047C48.8793 47.1255 49.5907 47.8369 49.5907 48.7114C49.5907 49.5859 48.8793 50.2973 48.0047 50.2973H35.471C34.8454 50.2973 34.3382 50.8046 34.3382 51.4301C34.3382 52.0557 34.8454 52.563 35.471 52.563H44.1407C45.0153 52.563 45.7267 53.2744 45.7267 54.1489C45.7265 55.023 45.0151 55.7344 44.1407 55.7344ZM55.7329 55.7344H55.7328H47.6492C47.8688 55.2503 47.9922 54.7137 47.9922 54.1484C47.9922 53.5832 47.8688 53.0466 47.6492 52.5625H48.0047C50.1284 52.5625 51.8562 50.8347 51.8562 48.7111C51.8562 48.0916 51.7084 47.5063 51.4474 46.9873C53.0782 46.5393 54.28 45.0446 54.28 43.2737C54.28 42.4145 53.997 41.6203 53.5197 40.9792V26.6219C53.5197 25.9963 53.0125 25.4891 52.3869 25.4891C51.7614 25.4891 51.2541 25.9963 51.2541 26.6219V39.5124C50.9879 39.454 50.7118 39.4223 50.4284 39.4223H50.3912C50.6109 38.9383 50.7343 38.4017 50.7343 37.8364C50.7343 35.7126 49.0065 33.9849 46.8828 33.9849H45.0618C46.9954 33.1557 48.3534 31.2338 48.3534 29C48.3534 26.0106 45.9215 23.5786 42.9321 23.5786C39.9429 23.5786 37.5108 26.0106 37.5108 29C37.5108 31.2338 38.8689 33.1557 40.8024 33.9849H34.6101V12.4454C36.6338 12.0044 38.2306 10.4077 38.6715 8.38395H47.1926C47.6335 10.4077 49.2303 12.0044 51.254 12.4454V15.9673C51.254 16.5929 51.7613 17.1001 52.3868 17.1001C53.0123 17.1001 53.5196 16.5929 53.5196 15.9673V11.434C53.5196 10.8085 53.0123 10.3012 52.3868 10.3012C50.7049 10.3012 49.3368 8.93291 49.3368 7.25113C49.3368 6.62559 48.8295 6.11832 48.204 6.11832H37.6602C37.0347 6.11832 36.5274 6.62559 36.5274 7.25113C36.5274 8.93302 35.1592 10.3012 33.4774 10.3012C32.8519 10.3012 32.3446 10.8085 32.3446 11.434V33.9848H30.132V2.26687L55.7329 2.26562V55.7344ZM42.9324 32.1558C41.1922 32.1558 39.7767 30.7401 39.7767 29.0001C39.7767 27.2601 41.1923 25.8443 42.9324 25.8443C44.6723 25.8443 46.088 27.26 46.088 29C46.088 30.74 44.6725 32.1558 42.9324 32.1558Z" fill="#0D8D90"/>
</g>
<defs>
<clipPath id="clip0">
<rect width="58" height="58" fill="white"/>
</clipPath>
</defs>
</svg>
