<svg width="52" height="52" viewBox="0 0 52 52" fill="none" xmlns="http://www.w3.org/2000/svg">
<path d="M10.5625 8.25666L11.6017 11.375H15.4375V9.75003H12.7733L10.5625 3.11841L7.97388 10.8827L7.00213 8.93753H4.0625V10.5625H5.99787L8.27612 15.1174L10.5625 8.25666Z" fill="#0D8D90"/>
<path d="M47.125 39C49.3651 39 51.1875 37.1776 51.1875 34.9375V13.8125C51.1875 11.8381 49.7705 10.192 47.9001 9.828C47.5247 5.24306 43.68 1.625 39 1.625C34.346 1.625 30.5159 5.20162 30.1039 9.75H18.6875C18.6875 4.82219 14.6778 0.8125 9.75 0.8125C4.82219 0.8125 0.8125 4.82219 0.8125 9.75C0.8125 12.5677 2.14662 15.1994 4.35825 16.8756C3.18337 17.9181 2.4375 19.4342 2.4375 21.125V22.7492V23.5617V25.7359C2.4375 28.9607 4.37369 31.8321 7.3125 33.0598V35.3413C4.40781 36.972 2.4375 40.079 2.4375 43.6402V51.1875H21.008V51.1688C21.8506 51.1249 22.6688 50.9348 23.4406 50.5838L30.0511 47.5792C30.3087 47.4622 30.5411 47.3078 30.7466 47.125H34.125C35.1829 47.125 36.0766 46.4433 36.413 45.5H48.75C50.0939 45.5 51.1875 44.4064 51.1875 43.0625C51.1875 41.7186 50.0939 40.625 48.75 40.625H43.875C43.4265 40.625 43.0625 40.261 43.0625 39.8125V39H47.125ZM47.125 37.375H19.084C17.7214 35.8312 15.8787 34.7327 13.8125 34.3159V33.1216C14.2179 32.9859 14.5917 32.7763 14.9208 32.5H49.5625V34.9375C49.5625 36.2814 48.4689 37.375 47.125 37.375ZM32.5 40.625H31.0667C29.4019 40.625 27.8184 41.3969 26.8125 42.6368V39H33.3125V40.7071C33.0501 40.6534 32.7779 40.625 32.5 40.625ZM21.7864 45.1937L21.372 42.2947C21.2022 41.1084 20.8114 39.9986 20.2483 39H25.1875V43.6475L21.7864 45.1937ZM11.0646 21.9367L11.6529 20.761C11.791 20.4839 12.0697 20.3117 12.3801 20.3117H17.0625C17.511 20.3117 17.875 20.6765 17.875 21.1242C17.875 21.5719 17.511 21.9367 17.0625 21.9367H11.0646ZM39 3.25C43.0324 3.25 46.3125 6.53088 46.3125 10.5625C46.3125 14.5941 43.0324 17.875 39 17.875C34.9676 17.875 31.6875 14.5941 31.6875 10.5625C31.6875 6.53088 34.9676 3.25 39 3.25ZM30.1039 11.375C30.5159 15.9234 34.346 19.5 39 19.5C43.6085 19.5 47.4118 15.9932 47.8863 11.5091C48.8564 11.8308 49.5625 12.7359 49.5625 13.8125V30.875H15.9868C16.1103 30.4582 16.1687 30.0194 16.1233 29.5734L15.522 23.5617H17.0625C18.4064 23.5617 19.5 22.4681 19.5 21.1242C19.5 19.7803 18.4064 18.6867 17.0625 18.6867H15.3554C15.2425 18.1342 15.0061 17.6296 14.6932 17.1828C16.7204 15.8373 18.0863 13.7475 18.5217 11.375H30.1039ZM2.4375 9.75C2.4375 5.71838 5.71756 2.4375 9.75 2.4375C13.7824 2.4375 17.0625 5.71838 17.0625 9.75C17.0625 12.3557 15.6902 14.7111 13.4696 16.0274C12.857 15.6561 12.1428 15.4375 11.3758 15.4375H8.125C7.31494 15.4375 6.5455 15.6106 5.84756 15.9169C3.74075 14.5803 2.4375 12.2606 2.4375 9.75ZM4.0625 21.125C4.0625 18.8849 5.88494 17.0625 8.125 17.0625H11.3758C12.4353 17.0625 13.338 17.7409 13.6727 18.6867H12.3792C11.4497 18.6867 10.6145 19.2026 10.1985 20.0338L9.24706 21.9367H4.0625V21.125ZM4.0625 25.7359V23.5617H6.28956C5.90038 24.1629 5.6875 24.8609 5.6875 25.5938C5.6875 26.5818 6.08806 27.5494 6.78763 28.249L7.3125 28.7739V31.2463C5.33488 30.147 4.0625 28.0605 4.0625 25.7359ZM7.9365 27.1001C7.54 26.7036 7.3125 26.1544 7.3125 25.5938C7.3125 25.025 7.5335 24.4904 7.9365 24.0874L8.46219 23.5617H13.8897L14.5072 29.7367C14.5608 30.2673 14.3748 30.7897 13.9961 31.1683C13.6663 31.4982 13.208 31.6883 12.7408 31.6883H10.5625V33.3133H12.1875V34.1364C12.1087 34.1339 12.0315 34.125 11.9527 34.125C10.8981 34.125 9.8865 34.3046 8.9375 34.6231V28.1011L7.9365 27.1001ZM22.7679 49.1051C22.1008 49.4089 21.3899 49.5625 20.6554 49.5625C18.382 49.5625 16.4157 48.0992 15.7633 45.9225L14.5917 42.0168L13.0349 42.4832L14.2066 46.3889C14.5901 47.6686 15.3311 48.7451 16.2858 49.5625H4.0625V43.6402C4.0625 39.2892 7.60175 35.75 11.9527 35.75C15.8535 35.75 19.2116 38.662 19.7624 42.5246L20.2443 45.8941L19.1636 46.3856L19.8364 47.8644L24.6472 45.6771L25.5986 47.8172L22.7679 49.1051ZM29.3792 46.0996L27.079 47.1453L26.1276 45.0044L28.3847 43.9782C28.5342 43.9107 28.6999 43.875 28.8974 43.875C29.5393 43.875 30.0625 44.3982 30.0625 45.0401C30.0625 45.4951 29.7944 45.9111 29.3792 46.0996ZM34.125 45.5H31.6453C31.6713 45.3489 31.6875 45.1961 31.6875 45.0401C31.6875 43.8563 30.9441 42.8496 29.887 42.445C30.2656 42.3223 30.6613 42.25 31.0667 42.25H32.5C33.8439 42.25 34.9375 43.3436 34.9375 44.6875C34.9375 45.136 34.5735 45.5 34.125 45.5ZM43.875 42.25H48.75C49.1985 42.25 49.5625 42.614 49.5625 43.0625C49.5625 43.511 49.1985 43.875 48.75 43.875H36.4804C36.2797 42.8894 35.7118 42.0444 34.9375 41.4586V39H41.4375V39.8125C41.4375 41.1564 42.5311 42.25 43.875 42.25Z" fill="#0D8D90"/>
<path d="M46.3125 34.125H47.9375V35.75H46.3125V34.125Z" fill="#0D8D90"/>
<path d="M39.8125 34.125H41.4375V35.75H39.8125V34.125Z" fill="#0D8D90"/>
<path d="M43.0625 34.125H44.6875V35.75H43.0625V34.125Z" fill="#0D8D90"/>
<path d="M34.125 6.5H35.75V8.125H34.125V6.5Z" fill="#0D8D90"/>
<path d="M37.375 6.5H43.875V8.125H37.375V6.5Z" fill="#0D8D90"/>
<path d="M34.125 9.75H35.75V11.375H34.125V9.75Z" fill="#0D8D90"/>
<path d="M37.375 9.75H43.875V11.375H37.375V9.75Z" fill="#0D8D90"/>
<path d="M34.125 13H35.75V14.625H34.125V13Z" fill="#0D8D90"/>
<path d="M37.375 13H43.875V14.625H37.375V13Z" fill="#0D8D90"/>
<path d="M29.25 22.75H21.125V29.25H29.25V22.75ZM27.625 27.625H22.75V24.375H27.625V27.625Z" fill="#0D8D90"/>
<path d="M21.125 19.5H29.25V21.125H21.125V19.5Z" fill="#0D8D90"/>
<path d="M21.125 16.25H29.25V17.875H21.125V16.25Z" fill="#0D8D90"/>
<path d="M21.125 13H29.25V14.625H21.125V13Z" fill="#0D8D90"/>
<path d="M30.875 27.625H32.5V29.25H30.875V27.625Z" fill="#0D8D90"/>
<path d="M34.125 27.625H47.9375V29.25H34.125V27.625Z" fill="#0D8D90"/>
<path d="M30.875 24.375H47.9375V26H30.875V24.375Z" fill="#0D8D90"/>
<path d="M30.875 21.125H47.9375V22.75H30.875V21.125Z" fill="#0D8D90"/>
</svg>
