<svg width="57" height="57" viewBox="0 0 57 57" fill="none" xmlns="http://www.w3.org/2000/svg">
<path d="M26.9714 8.73401C26.0203 8.73401 25.1262 9.10452 24.4539 9.77728C23.7812 10.4496 23.4107 11.3437 23.4111 12.2948C23.4111 14.2974 22.6879 16.1908 21.3676 17.6811C21.4524 17.2724 21.4972 16.8492 21.4972 16.4156C21.4972 12.9797 18.7023 10.1843 15.2663 10.1843C11.8304 10.1843 9.03497 12.9797 9.03497 16.4156C9.03497 16.8492 9.07977 17.2724 9.16457 17.6811C7.89473 16.2443 7.12152 14.3587 7.12152 12.2948C7.12152 10.3313 5.52422 8.73401 3.56076 8.73401C1.5973 8.73401 0 10.3313 0 12.2948C0 18.2204 3.39681 23.5533 8.7149 26.0825V37.5154C8.7149 37.521 8.71404 37.5267 8.71404 37.5328V55.858C8.71404 56.4725 9.2124 56.9704 9.82688 56.9704C10.4414 56.9704 10.9393 56.4725 10.9393 55.858V38.6456H21.0067V51.407C21.0067 52.0215 21.505 52.5199 22.1195 52.5199C22.734 52.5199 23.2324 52.0215 23.2324 51.407V25.3123C24.2569 24.6835 25.2045 23.9364 26.056 23.0849C28.9427 20.1982 30.5322 16.3665 30.5322 12.2948C30.5322 10.3313 28.9349 8.73401 26.9714 8.73401ZM15.2663 12.4096C17.475 12.4096 19.2719 14.2065 19.2719 16.4156C19.2719 18.6244 17.475 20.4213 15.2663 20.4213C13.0571 20.4213 11.2602 18.6244 11.2602 16.4156C11.2602 14.2065 13.0571 12.4096 15.2663 12.4096ZM24.4826 21.5111C23.6207 22.3726 22.644 23.1097 21.579 23.702C21.2258 23.8981 21.0067 24.2704 21.0067 24.6744V36.4199H10.9402V25.361C10.9402 24.9122 10.6705 24.5074 10.2565 24.3343C5.37767 22.296 2.22526 17.5702 2.22526 12.2948C2.22526 11.5585 2.82408 10.9597 3.56033 10.9597C4.29657 10.9597 4.89583 11.559 4.89583 12.2948C4.89583 18.0129 9.54813 22.6648 15.2659 22.6648H15.2663C18.0317 22.6648 20.6344 21.5854 22.5957 19.6246C24.5565 17.6642 25.6363 15.061 25.6363 12.2948C25.6363 11.9382 25.7751 11.6029 26.0273 11.3507C26.2795 11.0984 26.6148 10.9597 26.9714 10.9597C27.7077 10.9597 28.3065 11.5585 28.3069 12.2948C28.3069 15.772 26.9484 19.0449 24.4826 21.5111Z" fill="#0D8D90"/>
<path d="M22.1195 54.7456C21.8255 54.7456 21.5398 54.8643 21.3328 55.0713C21.1258 55.2783 21.0067 55.5645 21.0067 55.858C21.0067 56.1507 21.1258 56.4377 21.3328 56.6447C21.5398 56.8517 21.8268 56.9709 22.1195 56.9709C22.4122 56.9709 22.6992 56.8517 22.9062 56.6447C23.1132 56.4377 23.2324 56.1507 23.2324 55.858C23.2324 55.5653 23.1132 55.2783 22.9062 55.0713C22.6992 54.8643 22.4122 54.7456 22.1195 54.7456Z" fill="#0D8D90"/>
<path d="M15.986 43.1641C15.3715 43.1641 14.8732 43.6624 14.8732 44.2769V55.8872C14.8732 56.5017 15.3715 57.0001 15.986 57.0001C16.6005 57.0001 17.0984 56.5017 17.0984 55.8872V44.2769C17.0984 43.6624 16.6005 43.1641 15.986 43.1641Z" fill="#0D8D90"/>
<path d="M53.4101 23.9595C52.459 23.9595 51.5645 24.33 50.8922 25.0023C50.2194 25.6751 49.8493 26.5692 49.8493 27.5202C49.8493 29.5228 49.1266 31.4163 47.8063 32.9066C47.8907 32.4978 47.9355 32.0747 47.9355 31.6411C47.9355 28.2052 45.1405 25.4098 41.7046 25.4098C38.2686 25.4098 35.4732 28.2052 35.4732 31.6411C35.4732 32.0747 35.518 32.4978 35.6028 32.9066C34.333 31.4698 33.5598 29.5842 33.5598 27.5202C33.5598 25.5568 31.9625 23.9595 29.999 23.9595C28.0356 23.9595 26.4383 25.5568 26.4383 27.5202C26.4383 28.877 26.6174 30.2234 26.971 31.5228C27.1319 32.1156 27.7429 32.4661 28.3365 32.3043C28.9297 32.143 29.2793 31.5315 29.118 30.9388C28.8166 29.8299 28.6635 28.6796 28.6635 27.5202C28.6635 26.784 29.2628 26.1847 29.999 26.1847C30.7353 26.1852 31.3341 26.784 31.3341 27.5202C31.3341 33.2384 35.9864 37.8903 41.7041 37.8903H41.7046C44.4699 37.8903 47.0727 36.8105 49.034 34.8501C50.9948 32.8896 52.0746 30.2865 52.0746 27.5198C52.0746 27.1636 52.2133 26.8283 52.4656 26.5761C52.7178 26.3239 53.0531 26.1847 53.4097 26.1847C54.1459 26.1847 54.7447 26.784 54.7452 27.5202C54.7447 30.9975 53.3866 34.2704 50.9204 36.7365C50.0594 37.598 49.0822 38.3352 48.0172 38.927C47.6641 39.1236 47.4449 39.4958 47.4449 39.8998V51.6454H37.3784V40.5865C37.3784 40.1377 37.1088 39.7328 36.6948 39.5598C35.6093 39.1062 34.5878 38.5056 33.6589 37.7755C33.1758 37.3954 32.4765 37.4793 32.0964 37.9625C31.7168 38.4452 31.8003 39.1449 32.2834 39.525C33.1732 40.2247 34.136 40.8222 35.1532 41.3075V52.7408C35.1527 52.7465 35.1523 52.7521 35.1523 52.7582V55.858C35.1523 56.4725 35.6502 56.9704 36.2647 56.9704C36.8792 56.9704 37.3775 56.4725 37.3775 55.858V53.8706H47.4449V55.858C47.4449 56.4725 47.9433 56.9704 48.5578 56.9704C49.1722 56.9704 49.6702 56.4725 49.6702 55.858V40.5378C50.6952 39.909 51.6428 39.1614 52.4943 38.3099C55.3805 35.4237 56.9704 31.5915 56.9704 27.5198C56.9704 25.5568 55.3731 23.9595 53.4101 23.9595ZM41.7046 27.635C43.9133 27.635 45.7102 29.4319 45.7102 31.6411C45.7102 33.8498 43.9133 35.6468 41.7046 35.6468C39.4958 35.6468 37.6989 33.8498 37.6989 31.6411C37.6989 29.4319 39.4958 27.635 41.7046 27.635Z" fill="#0D8D90"/>
<path d="M30.8896 34.7984C30.5452 34.2891 29.8533 34.1556 29.3445 34.4992C28.8353 34.8436 28.7013 35.535 29.0453 36.0443L29.0579 36.063C29.2723 36.3844 29.625 36.5583 29.9847 36.5583C30.1965 36.5583 30.4113 36.4979 30.6009 36.3713C31.1123 36.0304 31.2502 35.3398 30.9092 34.8284L30.8896 34.7984Z" fill="#0D8D90"/>
<path d="M49.8493 14.444C50.4638 14.444 50.9622 13.9461 50.9622 13.3316V11.7947C50.9622 11.1803 50.4638 10.6819 49.8493 10.6819C49.2349 10.6819 48.7365 11.1803 48.7365 11.7947V13.3316C48.7365 13.9461 49.2349 14.444 49.8493 14.444Z" fill="#0D8D90"/>
<path d="M49.8493 21.809C50.4638 21.809 50.9622 21.3106 50.9622 20.6961V19.1593C50.9622 18.5452 50.4638 18.0469 49.8493 18.0469C49.2349 18.0469 48.7365 18.5452 48.7365 19.1593V20.6961C48.7365 21.3106 49.2349 21.809 49.8493 21.809Z" fill="#0D8D90"/>
<path d="M52.7634 17.3581H54.3003C54.9148 17.3581 55.4127 16.8601 55.4127 16.2457C55.4127 15.6312 54.9148 15.1328 54.3003 15.1328H52.7634C52.149 15.1328 51.6506 15.6312 51.6506 16.2457C51.6506 16.8601 52.149 17.3581 52.7634 17.3581Z" fill="#0D8D90"/>
<path d="M45.3984 17.3581H46.9352C47.5497 17.3581 48.0481 16.8601 48.0481 16.2457C48.0481 15.6312 47.5497 15.1328 46.9352 15.1328H45.3984C44.7839 15.1328 44.2855 15.6312 44.2855 16.2457C44.2855 16.8601 44.7839 17.3581 45.3984 17.3581Z" fill="#0D8D90"/>
<path d="M38.2773 3.76211C38.8918 3.76211 39.3897 3.26374 39.3897 2.64926V1.11285C39.3897 0.498367 38.8918 0 38.2773 0C37.6628 0 37.1645 0.498367 37.1645 1.11285V2.64926C37.1645 3.26374 37.6624 3.76211 38.2773 3.76211Z" fill="#0D8D90"/>
<path d="M38.2773 11.1272C38.8918 11.1272 39.3897 10.6288 39.3897 10.0143V8.47747C39.3897 7.86299 38.8918 7.36462 38.2773 7.36462C37.6628 7.36462 37.1645 7.86299 37.1645 8.47747V10.0143C37.1645 10.6288 37.6624 11.1272 38.2773 11.1272Z" fill="#0D8D90"/>
<path d="M41.191 6.67619H42.7278C43.3423 6.67619 43.8407 6.17782 43.8407 5.56334C43.8407 4.94886 43.3423 4.45093 42.7278 4.45093H41.191C40.5765 4.45093 40.0786 4.94886 40.0786 5.56334C40.0786 6.17782 40.5765 6.67619 41.191 6.67619Z" fill="#0D8D90"/>
<path d="M33.8264 6.67619H35.3632C35.9777 6.67619 36.4761 6.17782 36.4761 5.56334C36.4761 4.94886 35.9777 4.45093 35.3632 4.45093H33.8264C33.2119 4.45093 32.7135 4.94886 32.7135 5.56334C32.7135 6.17782 33.2119 6.67619 33.8264 6.67619Z" fill="#0D8D90"/>
</svg>
