<svg width="24" height="25" viewBox="0 0 24 25" fill="none" xmlns="http://www.w3.org/2000/svg">
<path d="M3.51562 25H11.3438V16.1133H8.53125V13.1836H11.3438V9.52148C11.3438 7.50217 12.9208 5.85938 14.8594 5.85938H18.375V8.78906H15.5625C14.787 8.78906 14.1562 9.44614 14.1562 10.2539V13.1836H18.2481L17.7794 16.1133H14.1562V25H20.4844C22.4229 25 24 23.3572 24 21.3379V3.66211C24 1.6428 22.4229 0 20.4844 0H3.51562C1.57709 0 0 1.6428 0 3.66211V21.3379C0 23.3572 1.57709 25 3.51562 25ZM1.40625 3.66211C1.40625 2.45056 2.35254 1.46484 3.51562 1.46484H20.4844C21.6475 1.46484 22.5938 2.45056 22.5938 3.66211V21.3379C22.5938 22.5494 21.6475 23.5352 20.4844 23.5352H15.5625V17.5781H18.9706L19.9081 11.7188H15.5625V10.2539H19.7812V4.39453H14.8594C12.1454 4.39453 9.9375 6.69441 9.9375 9.52148V11.7188H7.125V17.5781H9.9375V23.5352H3.51562C2.35254 23.5352 1.40625 22.5494 1.40625 21.3379V3.66211Z" fill="white"/>
</svg>
