<svg width="60" height="60" viewBox="0 0 60 60" fill="none" xmlns="http://www.w3.org/2000/svg">
<path d="M41.25 56.25H39.375V58.125H41.25V56.25Z" fill="#0D8D90"/>
<path d="M51.3305 38.7577C51.294 38.716 51.2539 38.6776 51.2107 38.6429L32.8467 23.9517C33.5366 22.594 33.8409 21.073 33.7265 19.5543C33.612 18.0357 33.0831 16.5775 32.1974 15.3385L30.29 12.6679C29.7689 11.94 29.082 11.3467 28.286 10.9371C27.49 10.5275 26.6079 10.3134 25.7128 10.3125H23.3188C23.3978 10.0063 23.4377 9.69126 23.4375 9.375V6.78383L24.1158 5.42713C24.303 5.05293 24.3913 4.63711 24.3725 4.21915C24.3537 3.8012 24.2284 3.39498 24.0085 3.03909C23.7885 2.68319 23.4812 2.38942 23.1158 2.18569C22.7504 1.98195 22.339 1.875 21.9206 1.875H19.6875C18.6933 1.87613 17.7401 2.27158 17.0371 2.97459C16.3341 3.67761 15.9386 4.63078 15.9375 5.625V9.375C15.9373 9.69126 15.9772 10.0063 16.0562 10.3125H15.8706V10.3709L9.02315 4.89292C8.85692 4.75994 8.65038 4.6875 8.4375 4.6875H5.625C5.37636 4.6875 5.13791 4.78628 4.96209 4.96209C4.78628 5.13791 4.6875 5.37636 4.6875 5.625V8.4375C4.68749 8.65036 4.75994 8.85689 4.89292 9.02309L7.50084 12.283C6.29351 13.5058 5.61913 15.1566 5.625 16.875V19.6875C5.62641 20.7676 6.00016 21.8142 6.68325 22.6509C7.36634 23.4876 8.31701 24.0632 9.375 24.2807V28.089L8.45335 40.0706L1.96295 53.9786C1.90502 54.1027 1.875 54.238 1.875 54.375V57.1875C1.875 57.4361 1.97378 57.6746 2.14959 57.8504C2.3254 58.0262 2.56386 58.125 2.8125 58.125H12.1875C12.4361 58.125 12.6746 58.0262 12.8504 57.8504C13.0262 57.6746 13.125 57.4361 13.125 57.1875V55.3125C13.125 55.167 13.0911 55.0234 13.026 54.8932C12.9609 54.763 12.8664 54.6498 12.75 54.5625L9.72582 52.2943L15.2987 44.333C15.6619 43.8143 15.948 43.2458 16.1482 42.645L18.2222 36.423L23.4911 41.692L25.3125 54.4416V57.1875C25.3125 57.4361 25.4113 57.6746 25.5871 57.8504C25.7629 58.0262 26.0014 58.125 26.25 58.125H35.625C35.8736 58.125 36.1121 58.0262 36.2879 57.8504C36.4637 57.6746 36.5625 57.4361 36.5625 57.1875V55.3125C36.5625 55.1506 36.5206 54.9915 36.4408 54.8506C36.361 54.7097 36.2461 54.5919 36.1073 54.5086L31.875 51.9692V42.7507L38.6429 51.2106C38.6775 51.2539 38.7159 51.294 38.7576 51.3305C41.156 53.4288 43.9014 55.0935 46.8709 56.25H43.125V58.125H57.1875C57.4361 58.125 57.6746 58.0262 57.8504 57.8504C58.0262 57.6746 58.125 57.4361 58.125 57.1875V56.8407C58.1257 50.189 55.7113 43.7632 51.3305 38.7577ZM56.243 56.243C50.5971 56.1113 45.1535 54.1146 40.7614 50.5644L45 46.3259L46.2123 47.5382C45.9262 48.1371 45.8611 48.8178 46.0283 49.4601C46.1956 50.1024 46.5846 50.6649 47.1265 51.0481C47.6684 51.4314 48.3284 51.6107 48.9897 51.5544C49.651 51.4981 50.2711 51.2098 50.7405 50.7405C51.2098 50.2711 51.4981 49.651 51.5544 48.9897C51.6107 48.3283 51.4314 47.6684 51.0481 47.1265C50.6649 46.5846 50.1024 46.1956 49.4601 46.0283C48.8179 45.861 48.1371 45.9262 47.5382 46.2123L46.3259 45L50.5644 40.7614C54.1146 45.1535 56.1113 50.5971 56.243 56.243ZM48.75 47.8125C48.9354 47.8125 49.1167 47.8675 49.2708 47.9705C49.425 48.0735 49.5452 48.2199 49.6161 48.3912C49.6871 48.5625 49.7057 48.751 49.6695 48.9329C49.6333 49.1148 49.544 49.2818 49.4129 49.4129C49.2818 49.544 49.1148 49.6333 48.9329 49.6695C48.751 49.7057 48.5625 49.6871 48.3912 49.6161C48.2199 49.5452 48.0735 49.425 47.9705 49.2708C47.8675 49.1167 47.8125 48.9354 47.8125 48.75C47.8128 48.5014 47.9116 48.2632 48.0874 48.0874C48.2632 47.9116 48.5014 47.8128 48.75 47.8125ZM28.7643 13.7577L30.6717 16.4283C31.5886 17.712 32.0041 19.2869 31.8399 20.8558C31.6756 22.4248 30.943 23.8794 29.7801 24.9454L25.9929 28.4171L23.8259 26.25L28.3712 21.7046C28.4645 21.6114 28.537 21.4995 28.5841 21.3764C28.6311 21.2532 28.6517 21.1215 28.6444 20.9899C28.6371 20.8582 28.6021 20.7296 28.5417 20.6123C28.4814 20.4951 28.3969 20.392 28.294 20.3096L19.286 13.1032C19.4194 13.1176 19.5534 13.1249 19.6875 13.125C20.5998 13.1256 21.4807 12.7921 22.1639 12.1875H25.7128C26.3095 12.1881 26.8976 12.3309 27.4282 12.6039C27.9589 12.877 28.4169 13.2725 28.7643 13.7577ZM22.2525 31.8458C22.0746 32.0095 21.8402 32.098 21.5985 32.0928C21.3569 32.0875 21.1266 31.9889 20.956 31.8177L20.0758 30.9375L21.2879 29.7255C21.419 29.5943 21.5083 29.4273 21.5445 29.2454C21.5807 29.0636 21.5621 28.8751 21.4912 28.7038C21.4202 28.5324 21.3 28.386 21.1459 28.283C20.9917 28.18 20.8104 28.125 20.625 28.125H19.8029C19.7747 28.125 19.7475 28.1147 19.7264 28.096C19.7053 28.0774 19.6918 28.0516 19.6884 28.0237C19.6849 27.9957 19.6918 27.9675 19.7078 27.9442C19.7237 27.921 19.7476 27.9044 19.7749 27.8976L22.2124 27.2882L24.6094 29.6853L22.2525 31.8458ZM17.9901 27.1875H11.25V24.375H17.1744L18.7375 26.3289C18.41 26.5361 18.1502 26.8345 17.9901 27.1875ZM18.75 19.1384L19.6875 18.2009V18.75C19.6875 18.9986 19.7863 19.2371 19.9621 19.4129C20.1379 19.5887 20.3764 19.6875 20.625 19.6875H22.5V21.5625C22.4997 21.8111 22.4009 22.0493 22.2251 22.2251C22.0493 22.4009 21.8111 22.4997 21.5625 22.5H18.75V19.1384ZM22.0207 25.4035L20.6688 25.7415L19.5756 24.375H21.5625C22.3082 24.3742 23.023 24.0776 23.5503 23.5503C24.0776 23.023 24.3742 22.3082 24.375 21.5625V19.5756L26.3048 21.1194L22.0207 25.4035ZM21.5445 17.3112L22.1712 17.8125H21.5625V17.538C21.5619 17.462 21.5559 17.3863 21.5445 17.3112V17.3112ZM17.8125 9.375V8.8258L19.1383 7.5H21.5625V9.375C21.5625 9.87228 21.365 10.3492 21.0133 10.7008C20.6617 11.0525 20.1848 11.25 19.6875 11.25C19.1902 11.25 18.7133 11.0525 18.3617 10.7008C18.01 10.3492 17.8125 9.87228 17.8125 9.375ZM19.6875 3.75H21.9206C22.0193 3.75 22.1165 3.77524 22.2027 3.82333C22.289 3.87142 22.3615 3.94077 22.4135 4.02478C22.4654 4.10879 22.495 4.20468 22.4994 4.30335C22.5039 4.40201 22.483 4.50017 22.4388 4.58851L21.9206 5.625H18.75C18.5014 5.625 18.2629 5.72375 18.0871 5.89954L17.8125 6.17414V5.625C17.8131 5.12789 18.0108 4.65131 18.3623 4.2998C18.7138 3.9483 19.1904 3.75057 19.6875 3.75ZM6.5625 6.5625H8.10865L19.8351 15.9437C19.4556 15.9724 19.099 16.1366 18.8305 16.4062L17.4242 17.8125H14.3255L6.5625 8.1086V6.5625ZM7.5 19.6875V16.875C7.49624 15.7266 7.91788 14.6174 8.68361 13.7615L11.9244 17.8125H10.3125V19.6875H16.875V22.5H10.3125C9.56684 22.4992 8.85196 22.2026 8.32469 21.6753C7.79743 21.148 7.50084 20.4332 7.5 19.6875ZM11.25 55.7812V56.25H3.75V55.0507L8.26798 53.5448L11.25 55.7812ZM34.6875 55.8433V56.25H27.1875V55.0097L30.8539 53.5432L34.6875 55.8433ZM30 51.8653L27.0094 53.0615L25.3031 41.1174C25.2744 40.9166 25.1813 40.7305 25.0379 40.587L18.4754 34.0245C18.3624 33.9116 18.2224 33.8293 18.0687 33.7857C17.915 33.742 17.7526 33.7384 17.5971 33.7751C17.4416 33.8118 17.298 33.8876 17.1801 33.9954C17.0621 34.1032 16.9737 34.2394 16.9231 34.391L14.3694 42.0521C14.2264 42.4812 14.0221 42.8874 13.7627 43.2579L7.84717 51.7085L4.58375 52.7963L10.2246 40.7089C10.2722 40.6067 10.3011 40.4968 10.3098 40.3844L11.1807 29.0625H18.1145C18.2643 29.3018 18.463 29.5069 18.6975 29.6641L18.0871 30.2745C17.9113 30.4504 17.8125 30.6888 17.8125 30.9375C17.8125 31.1862 17.9113 31.4246 18.0871 31.6005L19.6302 33.1436C20.142 33.6573 20.8328 33.953 21.5578 33.9687C22.2828 33.9845 22.9857 33.719 23.5194 33.228L23.9449 32.838L30 40.4069V51.8653ZM25.3301 31.5682L31.0471 26.3276C31.3191 26.077 31.574 25.8084 31.8101 25.5237L49.2214 39.4527L39.4527 49.2214L25.3301 31.5682Z" fill="#0D8D90"/>
</svg>
