<svg width="48" height="48" viewBox="0 0 48 48" fill="none" xmlns="http://www.w3.org/2000/svg">
<path d="M18.375 22.5938C19.1517 22.5938 19.7812 21.9642 19.7812 21.1875C19.7812 20.4108 19.1517 19.7812 18.375 19.7812C17.5983 19.7812 16.9688 20.4108 16.9688 21.1875C16.9688 21.9642 17.5983 22.5938 18.375 22.5938Z" fill="black"/>
<path d="M29.625 22.5938C30.4017 22.5938 31.0312 21.9642 31.0312 21.1875C31.0312 20.4108 30.4017 19.7812 29.625 19.7812C28.8483 19.7812 28.2188 20.4108 28.2188 21.1875C28.2188 21.9642 28.8483 22.5938 29.625 22.5938Z" fill="black"/>
<path d="M42.375 31.0312H42.0394C42.1955 30.5911 42.2812 30.1179 42.2812 29.625C42.2812 27.7752 41.084 26.2008 39.4241 25.633C38.8548 18.1177 32.8913 12.0862 25.4062 11.4083V8.19563C27.043 7.61512 28.2188 6.05203 28.2188 4.21875C28.2188 1.89253 26.3262 0 24 0C21.6738 0 19.7812 1.89253 19.7812 4.21875C19.7812 6.05203 20.957 7.61512 22.5938 8.19563V11.4083C15.1087 12.0862 9.14522 18.1177 8.57587 25.633C6.91603 26.2008 5.71875 27.7752 5.71875 29.625C5.71875 30.1179 5.80453 30.5911 5.96063 31.0312H5.625C2.52338 31.0312 0 33.5546 0 36.6562C0 38.7337 1.13287 40.5503 2.8125 41.5245V46.5938C2.8125 47.3704 3.44212 48 4.21875 48C5.54222 48 42.0813 48 43.7812 48C44.5579 48 45.1875 47.3704 45.1875 46.5938V41.5245C46.8671 40.5503 48 38.7337 48 36.6562C48 33.5546 45.4766 31.0312 42.375 31.0312ZM24 2.8125C24.7754 2.8125 25.4062 3.44334 25.4062 4.21875C25.4062 4.99416 24.7754 5.625 24 5.625C23.2246 5.625 22.5938 4.99416 22.5938 4.21875C22.5938 3.44334 23.2246 2.8125 24 2.8125ZM24 14.1562C30.5033 14.1562 35.8759 19.087 36.5777 25.4062H11.4223C12.1241 19.087 17.4967 14.1562 24 14.1562ZM8.53125 45.1875H5.625V42.2812H8.53125V45.1875ZM8.53125 39.4688H5.625C4.07419 39.4688 2.8125 38.2071 2.8125 36.6562C2.8125 35.1054 4.07419 33.8438 5.625 33.8438H8.53125C8.53125 35.5169 8.53125 37.7606 8.53125 39.4688ZM31.0312 45.1875H16.9688V42.2812H31.0312V45.1875ZM36.6562 45.1875H33.8438V40.875C33.8438 40.0984 33.2141 39.4688 32.4375 39.4688H15.5625C14.7859 39.4688 14.1562 40.0984 14.1562 40.875V45.1875H11.3438C11.3438 42.9067 11.3438 37.6738 11.3438 33.8438H36.6562C36.6562 37.6585 36.6562 42.889 36.6562 45.1875ZM38.0625 31.0312H9.9375C9.16209 31.0312 8.53125 30.4004 8.53125 29.625C8.53125 28.8496 9.16209 28.2188 9.9375 28.2188H38.0625C38.8379 28.2188 39.4688 28.8496 39.4688 29.625C39.4688 30.4004 38.8379 31.0312 38.0625 31.0312ZM42.375 45.1875H39.4688V42.2812H42.375V45.1875ZM42.375 39.4688H39.4688C39.4688 37.7599 39.4688 35.5168 39.4688 33.8438H42.375C43.9258 33.8438 45.1875 35.1054 45.1875 36.6562C45.1875 38.2071 43.9258 39.4688 42.375 39.4688Z" fill="black"/>
</svg>
