<svg width="48" height="48" viewBox="0 0 48 48" fill="none" xmlns="http://www.w3.org/2000/svg">
<path d="M41.8002 8.34463L41.5356 3.87487C41.4883 3.13779 40.8741 2.5708 40.1276 2.61805C39.3905 2.6653 38.8329 3.28898 38.8707 4.02607L38.9463 5.33959C35.0908 2.4574 30.4132 0.888733 25.4993 0.888733C19.4892 0.888733 13.8382 3.23228 9.59524 7.47525C9.0755 7.99499 9.0755 8.83602 9.59524 9.36521C10.3134 10.0834 11.2206 9.6298 11.4852 9.36521C15.2273 5.62309 20.2074 3.55358 25.5087 3.55358C29.7233 3.55358 33.73 4.85765 37.0753 7.2768L35.9224 7.3524C35.1853 7.39965 34.6278 8.02334 34.6656 8.76042C34.7034 9.46916 35.2987 10.0172 35.998 10.0172C36.0263 10.0172 40.5434 9.75265 40.5434 9.75265C41.2804 9.7054 41.838 9.08171 41.8002 8.34463Z" fill="black"/>
<path d="M20.368 42.534C10.8615 39.992 4.83255 30.9107 5.77753 21.4231L6.41066 22.3776C6.66581 22.765 7.47849 23.2281 8.25338 22.7556C8.87706 22.3681 9.03771 21.5271 8.63137 20.9129L6.17442 17.1707C5.97597 16.8778 5.67358 16.6699 5.33339 16.5943C4.98374 16.5281 4.62465 16.5943 4.33171 16.7833L0.599034 19.2402C-0.0152033 19.6466 -0.1853 20.4687 0.221042 21.0829C0.627383 21.6972 1.44952 21.8673 2.06375 21.4609L3.16938 20.7333C1.87476 31.6573 8.76367 42.1844 19.6782 45.1044C19.7916 45.1327 20.9728 45.2745 21.313 44.1594C21.5304 43.4601 21.0862 42.723 20.368 42.534Z" fill="black"/>
<path d="M47.2338 17.5582C47.0448 16.8495 46.3077 16.4243 45.599 16.6133C44.8903 16.8023 44.465 17.5393 44.654 18.2481C47.196 27.7546 42.3577 37.5257 33.6639 41.4474L34.1742 40.4173C34.5049 39.7558 34.2403 38.962 33.5788 38.6313C32.9174 38.3006 32.1141 38.5652 31.7928 39.2266L29.7895 43.2239C29.4587 43.8854 29.7233 44.6792 30.3848 45.0099L34.3821 47.0133C34.5711 47.1078 35.6389 47.344 36.1681 46.4179C36.5366 45.7754 36.2342 44.9627 35.5728 44.6319L34.3726 44.0271C44.4839 39.6991 50.1538 28.4822 47.2338 17.5582Z" fill="black"/>
<path d="M19.3474 28.1703L21.7477 25.6661C22.6832 24.6928 24.1952 23.3131 24.1952 21.3003C24.1952 20.0435 23.2313 17.2369 19.8766 17.2369C17.3252 17.2369 15.6242 19.2024 15.0005 20.1663L17.3724 21.5743C18.119 20.3837 18.9127 19.7883 19.7443 19.7883C21.3602 19.7883 21.3035 20.9034 21.3035 21.3475C21.3035 22.5193 19.905 23.8328 19.1206 24.6361L15.2273 28.6239V30.8257H24.5921V28.1703H19.3474Z" fill="black"/>
<path d="M34.4955 25.0802V22.765H31.6511V25.0802H29.7706L34.2687 17.5393H31.0463L26.3119 25.3826V27.6411H31.6511V30.8163H34.4955V27.6411H35.998V25.0802H34.4955Z" fill="black"/>
<path d="M39.2298 15.8289C38.7762 15.8289 38.3699 16.0084 38.0108 16.3769V14.2602H36.8107V20.1947H38.0108V17.87C38.0108 17.5298 38.0959 16.8494 38.9085 16.8494C39.3905 16.8494 39.6362 17.1802 39.6362 17.8417V20.1947H40.8363V17.5865C40.8363 16.736 40.3071 15.8289 39.2298 15.8289Z" fill="black"/>
</svg>
